<svg width="61" height="28" viewBox="0 0 61 28" fill="none" xmlns="http://www.w3.org/2000/svg">
<path d="M0.0269775 23.4497V2.0083H5.15155V10.8672L15.1943 2.0083H21.1788L13.8186 8.73503L22.3481 23.4497H16.7076L10.4825 12.669H9.58827L5.15155 16.5428V23.4497H0.0269775Z" fill="#E6E6E6"/>
<path d="M27.0232 27.684H22.9992L33.3859 0.656952H37.3067L27.0232 27.684Z" fill="#E6E6E6"/>
<path d="M55.5069 16.6029H60.8378C60.4709 18.7851 59.3704 20.5368 57.5361 21.8582C55.7247 23.1795 53.4089 23.8401 50.5886 23.8401C46.8971 23.8401 44.0081 22.8291 41.9216 20.8071C39.858 18.7651 38.8262 16.0724 38.8262 12.729C38.8262 9.38568 39.8694 6.703 41.956 4.68098C44.0425 2.63893 46.92 1.61791 50.5886 1.61791C53.2713 1.61791 55.5069 2.22852 57.2953 3.44975C59.0837 4.65095 60.1843 6.25255 60.597 8.25455H55.2317C54.6585 6.49279 53.1108 5.61191 50.5886 5.61191C48.4792 5.61191 46.8627 6.28258 45.7392 7.62392C44.6386 8.94524 44.0883 10.6469 44.0883 12.729C44.0883 14.8111 44.6386 16.5228 45.7392 17.8642C46.8627 19.1855 48.4792 19.8461 50.5886 19.8461C51.8956 19.8461 52.9732 19.5659 53.8216 19.0053C54.6929 18.4247 55.2546 17.6239 55.5069 16.6029Z" fill="#E6E6E6"/>
</svg>
